<svg xmlns="http://www.w3.org/2000/svg" xmlns:xlink="http://www.w3.org/1999/xlink" contentStyleType="text/css" height="749px" preserveAspectRatio="none" style="width:712px;height:749px;background:#FFFFFF;" version="1.1" viewBox="0 0 712 749" width="712px" zoomAndPan="magnify"><defs/><g><!--cluster IS (Being)--><g id="cluster_IS (Being)"><rect fill="none" height="447" rx="2.5" ry="2.5" style="stroke:#181818;stroke-width:1.0;" width="191" x="7" y="7"/><text fill="#000000" font-family="sans-serif" font-size="14" font-weight="bold" lengthAdjust="spacing" textLength="75" x="65" y="21.9951">IS (Being)</text></g><!--cluster State--><g id="cluster_State"><rect fill="none" height="178" rx="2.5" ry="2.5" style="stroke:#181818;stroke-width:1.0;" width="143" x="31" y="252"/><path d="M82,252 L82,261.2969 L72,271.2969 L31,271.2969 " fill="none" style="stroke:#181818;stroke-width:1.0;"/><text fill="#000000" font-family="sans-serif" font-size="14" font-weight="bold" lengthAdjust="spacing" textLength="41" x="34" y="265.9951">State</text></g><!--cluster Structure--><g id="cluster_Structure"><rect fill="none" height="178" rx="2.5" ry="2.5" style="stroke:#181818;stroke-width:1.0;" width="140" x="32.5" y="50"/><path d="M117.5,50 L117.5,59.2969 L107.5,69.2969 L32.5,69.2969 " fill="none" style="stroke:#181818;stroke-width:1.0;"/><text fill="#000000" font-family="sans-serif" font-size="14" font-weight="bold" lengthAdjust="spacing" textLength="75" x="35.5" y="63.9951">Structure</text></g><!--cluster HAS (Possession)--><g id="cluster_HAS (Possession)"><rect fill="none" height="259" rx="2.5" ry="2.5" style="stroke:#181818;stroke-width:1.0;" width="162" x="21.5" y="478"/><text fill="#000000" font-family="sans-serif" font-size="14" font-weight="bold" lengthAdjust="spacing" textLength="139" x="33" y="492.9951">HAS (Possession)</text></g><!--cluster DO (Action)--><g id="cluster_DO (Action)"><rect fill="none" height="372" rx="2.5" ry="2.5" style="stroke:#181818;stroke-width:1.0;" width="402" x="304" y="371"/><text fill="#000000" font-family="sans-serif" font-size="14" font-weight="bold" lengthAdjust="spacing" textLength="90" x="460" y="385.9951">DO (Action)</text></g><!--cluster Logic--><g id="cluster_Logic"><rect fill="none" height="178" rx="2.5" ry="2.5" style="stroke:#181818;stroke-width:1.0;" width="140" x="328" y="541"/><path d="M380,541 L380,550.2969 L370,560.2969 L328,560.2969 " fill="none" style="stroke:#181818;stroke-width:1.0;"/><text fill="#000000" font-family="sans-serif" font-size="14" font-weight="bold" lengthAdjust="spacing" textLength="42" x="331" y="554.9951">Logic</text></g><!--cluster Operations--><g id="cluster_Operations"><rect fill="none" height="103" rx="2.5" ry="2.5" style="stroke:#181818;stroke-width:1.0;" width="348.5" x="333.5" y="414"/><path d="M430.5,414 L430.5,423.2969 L420.5,433.2969 L333.5,433.2969 " fill="none" style="stroke:#181818;stroke-width:1.0;"/><text fill="#000000" font-family="sans-serif" font-size="14" font-weight="bold" lengthAdjust="spacing" textLength="87" x="336.5" y="427.9951">Operations</text></g><!--entity Variables--><g id="elem_Variables"><rect fill="#F1F1F1" height="46.2969" rx="2.5" ry="2.5" style="stroke:#181818;stroke-width:0.5;" width="102" x="51.5" y="367.85"/><rect fill="#F1F1F1" height="10" style="stroke:#181818;stroke-width:0.5;" width="15" x="133.5" y="372.85"/><rect fill="#F1F1F1" height="2" style="stroke:#181818;stroke-width:0.5;" width="4" x="131.5" y="374.85"/><rect fill="#F1F1F1" height="2" style="stroke:#181818;stroke-width:0.5;" width="4" x="131.5" y="378.85"/><text fill="#000000" font-family="sans-serif" font-size="14" lengthAdjust="spacing" textLength="62" x="66.5" y="400.8451">Variables</text></g><!--entity Constants--><g id="elem_Constants"><rect fill="#F1F1F1" height="46.2969" rx="2.5" ry="2.5" style="stroke:#181818;stroke-width:0.5;" width="111" x="47" y="286.85"/><rect fill="#F1F1F1" height="10" style="stroke:#181818;stroke-width:0.5;" width="15" x="138" y="291.85"/><rect fill="#F1F1F1" height="2" style="stroke:#181818;stroke-width:0.5;" width="4" x="136" y="293.85"/><rect fill="#F1F1F1" height="2" style="stroke:#181818;stroke-width:0.5;" width="4" x="136" y="297.85"/><text fill="#000000" font-family="sans-serif" font-size="14" lengthAdjust="spacing" textLength="71" x="62" y="319.8451">Constants</text></g><!--entity Classes--><g id="elem_Classes"><rect fill="#F1F1F1" height="46.2969" rx="2.5" ry="2.5" style="stroke:#181818;stroke-width:0.5;" width="94" x="55.5" y="165.85"/><rect fill="#F1F1F1" height="10" style="stroke:#181818;stroke-width:0.5;" width="15" x="129.5" y="170.85"/><rect fill="#F1F1F1" height="2" style="stroke:#181818;stroke-width:0.5;" width="4" x="127.5" y="172.85"/><rect fill="#F1F1F1" height="2" style="stroke:#181818;stroke-width:0.5;" width="4" x="127.5" y="176.85"/><text fill="#000000" font-family="sans-serif" font-size="14" lengthAdjust="spacing" textLength="54" x="70.5" y="198.8451">Classes</text></g><!--entity Interfaces--><g id="elem_Interfaces"><rect fill="#F1F1F1" height="46.2969" rx="2.5" ry="2.5" style="stroke:#181818;stroke-width:0.5;" width="108" x="48.5" y="84.85"/><rect fill="#F1F1F1" height="10" style="stroke:#181818;stroke-width:0.5;" width="15" x="136.5" y="89.85"/><rect fill="#F1F1F1" height="2" style="stroke:#181818;stroke-width:0.5;" width="4" x="134.5" y="91.85"/><rect fill="#F1F1F1" height="2" style="stroke:#181818;stroke-width:0.5;" width="4" x="134.5" y="95.85"/><text fill="#000000" font-family="sans-serif" font-size="14" lengthAdjust="spacing" textLength="68" x="63.5" y="117.8451">Interfaces</text></g><!--entity Objects--><g id="elem_Objects"><rect fill="#F1F1F1" height="46.2969" rx="2.5" ry="2.5" style="stroke:#181818;stroke-width:0.5;" width="93" x="56" y="674.85"/><rect fill="#F1F1F1" height="10" style="stroke:#181818;stroke-width:0.5;" width="15" x="129" y="679.85"/><rect fill="#F1F1F1" height="2" style="stroke:#181818;stroke-width:0.5;" width="4" x="127" y="681.85"/><rect fill="#F1F1F1" height="2" style="stroke:#181818;stroke-width:0.5;" width="4" x="127" y="685.85"/><text fill="#000000" font-family="sans-serif" font-size="14" lengthAdjust="spacing" textLength="53" x="71" y="707.8451">Objects</text></g><!--entity Collections--><g id="elem_Collections"><rect fill="#F1F1F1" height="46.2969" rx="2.5" ry="2.5" style="stroke:#181818;stroke-width:0.5;" width="116" x="44.5" y="593.85"/><rect fill="#F1F1F1" height="10" style="stroke:#181818;stroke-width:0.5;" width="15" x="140.5" y="598.85"/><rect fill="#F1F1F1" height="2" style="stroke:#181818;stroke-width:0.5;" width="4" x="138.5" y="600.85"/><rect fill="#F1F1F1" height="2" style="stroke:#181818;stroke-width:0.5;" width="4" x="138.5" y="604.85"/><text fill="#000000" font-family="sans-serif" font-size="14" lengthAdjust="spacing" textLength="76" x="59.5" y="626.8451">Collections</text></g><!--entity Components--><g id="elem_Components"><rect fill="#F1F1F1" height="46.2969" rx="2.5" ry="2.5" style="stroke:#181818;stroke-width:0.5;" width="130" x="37.5" y="512.85"/><rect fill="#F1F1F1" height="10" style="stroke:#181818;stroke-width:0.5;" width="15" x="147.5" y="517.85"/><rect fill="#F1F1F1" height="2" style="stroke:#181818;stroke-width:0.5;" width="4" x="145.5" y="519.85"/><rect fill="#F1F1F1" height="2" style="stroke:#181818;stroke-width:0.5;" width="4" x="145.5" y="523.85"/><text fill="#000000" font-family="sans-serif" font-size="14" lengthAdjust="spacing" textLength="90" x="52.5" y="545.8451">Components</text></g><!--entity Methods--><g id="elem_Methods"><rect fill="#F1F1F1" height="46.2969" rx="2.5" ry="2.5" style="stroke:#181818;stroke-width:0.5;" width="101" x="347.5" y="575.85"/><rect fill="#F1F1F1" height="10" style="stroke:#181818;stroke-width:0.5;" width="15" x="428.5" y="580.85"/><rect fill="#F1F1F1" height="2" style="stroke:#181818;stroke-width:0.5;" width="4" x="426.5" y="582.85"/><rect fill="#F1F1F1" height="2" style="stroke:#181818;stroke-width:0.5;" width="4" x="426.5" y="586.85"/><text fill="#000000" font-family="sans-serif" font-size="14" lengthAdjust="spacing" textLength="61" x="362.5" y="608.8451">Methods</text></g><!--entity Functions--><g id="elem_Functions"><rect fill="#F1F1F1" height="46.2969" rx="2.5" ry="2.5" style="stroke:#181818;stroke-width:0.5;" width="108" x="344" y="656.85"/><rect fill="#F1F1F1" height="10" style="stroke:#181818;stroke-width:0.5;" width="15" x="432" y="661.85"/><rect fill="#F1F1F1" height="2" style="stroke:#181818;stroke-width:0.5;" width="4" x="430" y="663.85"/><rect fill="#F1F1F1" height="2" style="stroke:#181818;stroke-width:0.5;" width="4" x="430" y="667.85"/><text fill="#000000" font-family="sans-serif" font-size="14" lengthAdjust="spacing" textLength="68" x="359" y="689.8451">Functions</text></g><!--entity API Calls--><g id="elem_API Calls"><rect fill="#F1F1F1" height="46.2969" rx="2.5" ry="2.5" style="stroke:#181818;stroke-width:0.5;" width="97" x="349.5" y="448.85"/><rect fill="#F1F1F1" height="10" style="stroke:#181818;stroke-width:0.5;" width="15" x="426.5" y="453.85"/><rect fill="#F1F1F1" height="2" style="stroke:#181818;stroke-width:0.5;" width="4" x="424.5" y="455.85"/><rect fill="#F1F1F1" height="2" style="stroke:#181818;stroke-width:0.5;" width="4" x="424.5" y="459.85"/><text fill="#000000" font-family="sans-serif" font-size="14" lengthAdjust="spacing" textLength="57" x="364.5" y="481.8451">API Calls</text></g><!--entity CRUD--><g id="elem_CRUD"><rect fill="#F1F1F1" height="46.2969" rx="2.5" ry="2.5" style="stroke:#181818;stroke-width:0.5;" width="81" x="585" y="448.85"/><rect fill="#F1F1F1" height="10" style="stroke:#181818;stroke-width:0.5;" width="15" x="646" y="453.85"/><rect fill="#F1F1F1" height="2" style="stroke:#181818;stroke-width:0.5;" width="4" x="644" y="455.85"/><rect fill="#F1F1F1" height="2" style="stroke:#181818;stroke-width:0.5;" width="4" x="644" y="459.85"/><text fill="#000000" font-family="sans-serif" font-size="14" lengthAdjust="spacing" textLength="41" x="600" y="481.8451">CRUD</text></g><!--link Variables to Methods--><g id="link_Variables_Methods"><path d="M136.6,414.46 C193.12,454.51 302.695,532.1602 359.125,572.1602 " fill="none" id="Variables-to-Methods" style="stroke:#181818;stroke-width:1.0;"/><polygon fill="#181818" points="364.02,575.63,358.9907,567.162,359.9409,572.7385,354.3644,573.6887,364.02,575.63" style="stroke:#181818;stroke-width:1.0;"/><text fill="#000000" font-family="sans-serif" font-size="13" lengthAdjust="spacing" textLength="41" x="230.5" y="466.3169">Modify</text></g><!--link Objects to Functions--><g id="link_Objects_Functions"><path d="M149.36,695.19 C201.92,691.96 281.9513,687.0575 337.5213,683.6475 " fill="none" id="Objects-to-Functions" style="stroke:#181818;stroke-width:1.0;"/><polygon fill="#181818" points="343.51,683.28,334.2819,679.8387,338.5194,683.5862,334.7719,687.8237,343.51,683.28" style="stroke:#181818;stroke-width:1.0;"/><text fill="#000000" font-family="sans-serif" font-size="13" lengthAdjust="spacing" textLength="72" x="215" y="682.9269">Operate on</text></g><!--link API Calls to CRUD--><g id="link_API Calls_CRUD"><path d="M446.82,472 C487.81,472 540.15,472 578.65,472 " fill="none" id="API Calls-to-CRUD" style="stroke:#181818;stroke-width:1.0;"/><polygon fill="#181818" points="584.65,472,575.65,468,579.65,472,575.65,476,584.65,472" style="stroke:#181818;stroke-width:1.0;"/><text fill="#000000" font-family="sans-serif" font-size="13" lengthAdjust="spacing" textLength="69" x="485" y="468.0669">Implement</text></g><!--SRC=[LL4nZi8m4EppYXKLL_01YfD2428IA0Xqro2A9Ta4dnmxiZV5wSJVpzZ4IJgFDRCpiokfPc0DHZGFXaeOAbbebIIl1wf64Ypo2omt95JpiO2_1A0ss19S69ay1hX-en5ubsHl0MTQMITdZvyJZUbBxatKPHAjZQfSCPaQIthBdhCO-zJbEEaNtxg8xp3NulxZE5xXRAKC1GRSTbgHpp4VjYrWcNhchDH1Dw8SmXs97xeQmkrwDKuUAnKT6VJ_WomzvP2Xb74Nvwzjx3FP5AnMdwC9hE6eAr7_9h5H88o-ZXBS2Do59Zw1w7qS9syxIQqh_Gy0]--></g></svg>